<?xml version="1.0" encoding="iso-8859-1"?>
<!-- Generator: Adobe Illustrator 18.0.0, SVG Export Plug-In . SVG Version: 6.00 Build 0)  -->
<!DOCTYPE svg PUBLIC "-//W3C//DTD SVG 1.1//EN" "http://www.w3.org/Graphics/SVG/1.1/DTD/svg11.dtd">
<svg version="1.1" id="Capa_1" xmlns="http://www.w3.org/2000/svg" xmlns:xlink="http://www.w3.org/1999/xlink" x="0px" y="0px"
	 viewBox="0 0 436.641 436.641" style="enable-background:new 0 0 436.641 436.641;" xml:space="preserve">
<g>
	<g>
		<path d="M185.438,105.841h-2.929V90.492h2.929c2.762,0,5-2.239,5-5s-2.238-5-5-5h-2.929V63.719c0-2.761-2.238-5-5-5
			c-2.762,0-5,2.239-5,5v16.773h-2.929c-2.762,0-5,2.239-5,5s2.238,5,5,5h2.929v15.349h-2.929c-2.762,0-5,2.239-5,5
			c0,2.761,2.238,5,5,5h2.929v10.829c0,2.761,2.238,5,5,5c2.762,0,5-2.239,5-5v-10.829h2.929c2.762,0,5-2.239,5-5
			C190.438,108.08,188.199,105.841,185.438,105.841z"/>
		<path d="M285.648,140.135H150.992c-2.762,0-5,2.239-5,5c0,2.761,2.238,5,5,5h5.794c-0.036,0.497-0.061,0.996-0.061,1.499
			c0,11.46,9.323,20.782,20.782,20.782c11.46,0,20.783-9.323,20.783-20.782c0-0.503-0.024-1.001-0.061-1.499h4.17v27.355
			c-7.735,2.187-13.427,9.293-13.427,17.719c0,2.761,2.238,5,5,5c2.762,0,5-2.239,5-5c0-2.848,1.424-5.367,3.594-6.893
			c1.067,7.749,7.715,13.742,15.753,13.742c8.035,0,14.681-5.99,15.75-13.736c2.169,1.525,3.595,4.039,3.595,6.887
			c0,2.761,2.238,5,5,5c2.762,0,5-2.239,5-5c0-8.424-5.693-15.516-13.427-17.702v-27.372h4.171
			c-0.036,0.497-0.061,0.996-0.061,1.499c0,11.46,9.322,20.782,20.781,20.782c11.46,0,20.784-9.323,20.784-20.782
			c0-0.503-0.024-1.001-0.061-1.499h5.794c2.762,0,5-2.239,5-5C290.648,142.374,288.409,140.135,285.648,140.135z M177.508,162.417
			c-5.945,0-10.782-4.837-10.782-10.782c0-0.504,0.035-1.004,0.105-1.499h21.354c0.07,0.495,0.105,0.995,0.105,1.499
			C188.291,157.58,183.454,162.417,177.508,162.417z M218.32,192.059c-3.265,0-5.92-2.656-5.92-5.92v-36.004h11.838v36.004
			C224.238,189.403,221.583,192.059,218.32,192.059z M259.13,162.417c-5.944,0-10.781-4.837-10.781-10.782
			c0-0.504,0.035-1.004,0.105-1.499h21.354c0.07,0.495,0.105,0.995,0.105,1.499C269.914,157.58,265.076,162.417,259.13,162.417z"/>
		<g>
			<g>
				<path d="M436.368,428.461l-28.887-83.926c-1.263-4.558-16.018-46.582-133.381-65.861v-5.455h18.246
					c7.268,0,12.346-5.712,12.346-13.892c0-8.18-5.077-13.892-12.346-13.892h-18.246v-1.615c1.884-3.474,3.76-6.77,5.894-9.771
					c6.01-8.451,11.112-18.073,15.3-28.813c2.836,1.121,10.995,1.453,11.408,1.447c13.806-0.172,20.276-23.391,22.905-37.216
					c0,0,4.448-23.347,0.091-29.275c-1.619-2.202-3.929-3.71-6.875-4.518V29.566c0-15.446-12.566-28.013-28.014-28.013H141.828
					c-15.446,0-28.013,12.567-28.013,28.013v106.107c-2.945,0.809-5.256,2.316-6.874,4.518c-4.358,5.929,0.09,29.275,0.09,29.275
					c2.63,13.825,9.102,37.044,22.904,37.216c0.414,0.005,8.575-0.325,11.411-1.445c4.187,10.739,9.289,20.36,15.298,28.811
					c2.134,3.001,4.011,6.296,5.894,9.77v1.616h-18.244c-7.27,0-12.347,5.712-12.347,13.892c0,8.18,5.077,13.892,12.347,13.892
					h18.244v5.455C45.17,297.954,30.419,339.982,29.157,344.535L0.273,428.461c-0.526,1.528-0.281,3.216,0.657,4.531
					s2.454,2.096,4.07,2.096h426.641c1.616,0,3.132-0.781,4.07-2.096C436.649,431.676,436.895,429.988,436.368,428.461z
					 M292.347,255.435c1.557,0,2.346,1.309,2.346,3.892c0,2.582-0.789,3.892-2.346,3.892h-18.246v-7.784H292.347z M271.844,228.253
					c-3.096,4.354-5.66,9.147-8.14,13.783c-3.688,6.892-7.285,13.617-12.596,19.001l3.473-42.04
					c6.263-3.183,21.726-12.311,35.843-30.54C285.899,203.878,279.706,217.197,271.844,228.253z M218.317,282.665
					c0.001,0,0.001,0,0.001,0h0.001h0.001h0.001c25.135-0.001,37.48-9.847,45.779-21.633v21.668
					c-0.063,0.652-0.269,2.761-0.621,6.048c-3.532,16.965-22.316,30.058-45.16,30.669c-22.867-0.611-41.668-13.732-45.171-30.725
					c-0.348-3.264-0.55-5.357-0.61-5.996v-21.665C180.837,272.818,193.183,282.664,218.317,282.665z M193.706,238.545h49.226
					l-2.476,29.972c-5.686,2.606-12.822,4.147-22.137,4.147c-9.316,0-16.453-1.542-22.14-4.149L193.706,238.545z M318.877,145.066
					c1.445,0.167,2.375,0.519,2.764,1.047c1.775,2.417-1.857,21.485-1.857,21.485c-3.802,19.995-10.011,29.045-13.207,29.085
					c-4.479,0.056-6.61-0.249-7.959-0.855c4.394-13.627,7.474-28.833,9.193-45.566C309.87,147.283,314.468,144.554,318.877,145.066z
					 M123.815,29.566c0-9.933,8.08-18.013,18.013-18.013H294.81c9.933,0,18.014,8.081,18.014,18.013v106.081
					c-1.687,0.415-3.338,1.018-4.901,1.805c-1.114-4.226-3.634-8.015-5.943-11.478c-1.895-2.843-4.045-6.066-4.045-7.897V37.152
					c0-2.761-2.238-5-5-5H143.705c-2.762,0-5,2.239-5,5v80.924c0,1.831-2.149,5.054-4.045,7.897
					c-2.309,3.461-4.827,7.249-5.942,11.473c-1.564-0.786-3.216-1.388-4.902-1.803V29.566z M130.062,196.684
					c-3.194-0.04-9.403-9.09-13.206-29.085c0,0-3.633-19.068-1.856-21.485c0.389-0.528,1.317-0.881,2.763-1.047
					c4.414-0.515,9.01,2.218,11.067,5.197c1.72,16.733,4.801,31.937,9.193,45.564C136.673,196.433,134.541,196.738,130.062,196.684z
					 M139.882,158.29c-0.717-5.186-1.308-10.523-1.737-16.049c-0.242-3.105,2.339-6.977,4.835-10.72
					c2.815-4.221,5.726-8.585,5.726-13.445V42.152h12.426v11.436c0,2.761,2.238,5,5,5c2.762,0,5-2.239,5-5V42.152h16.094v11.436
					c0,2.761,2.238,5,5,5s5-2.239,5-5V42.152h16.094v11.436c0,2.761,2.238,5,5,5c2.762,0,5-2.239,5-5V42.152h16.094v11.436
					c0,2.761,2.238,5,5,5s5-2.239,5-5V42.152h16.095v11.436c0,2.761,2.238,5,5,5c2.762,0,5-2.239,5-5V42.152h12.427v75.924
					c0,4.86,2.911,9.225,5.726,13.446c2.496,3.743,5.078,7.613,4.836,10.719c-0.43,5.525-1.02,10.861-1.736,16.046
					c-17.137,39.04-48.542,52.684-48.849,52.813c-1.725,0.719-2.904,2.341-3.059,4.203l-1.094,13.242H192.88l-1.093-13.242
					c-0.153-1.855-1.334-3.476-3.049-4.199C188.422,210.971,157.02,197.327,139.882,158.29z M146.226,188.492
					c14.113,18.214,29.571,27.323,35.832,30.505l3.471,42.038c-5.309-5.384-8.906-12.107-12.593-18.998
					c-2.48-4.636-5.045-9.43-8.141-13.784C156.939,217.205,150.749,203.898,146.226,188.492z M144.294,263.219
					c-1.558,0-2.347-1.31-2.347-3.892c0-2.583,0.789-3.892,2.347-3.892h18.244v7.784H144.294z M74.648,425.088v-35.384
					c0-2.761-2.238-5-5-5c-2.762,0-5,2.239-5,5v35.384h-52.64c0,0,26.77-77.807,26.81-77.98c0.021-0.091,4.248-11.18,18.567-21.388
					c14.338-10.222,41.065-24.422,90.824-34.287c-15.794,12.278-39.297,31.086-53.321,44.826c-1.112,1.09-1.653,2.636-1.464,4.182
					c0.19,1.546,1.09,2.915,2.434,3.703l32.017,18.771l-14.88,24.167c-1.043,1.695-0.982,3.847,0.155,5.48l22.661,32.525H74.648z
					 M147.999,425.088l-24.77-35.553l15.841-25.727c0.705-1.145,0.919-2.526,0.594-3.831c-0.325-1.305-1.162-2.424-2.322-3.104
					l-30.69-17.994c17.2-15.902,44.141-36.872,56.83-46.583c2.528,23.051,10.35,86.108,24.655,132.793H147.999z M198.611,425.088
					c-11.309-35.603-18.655-82.192-22.587-112.261c9.634,9.271,23.649,15.464,39.442,16.465c0.382,0.094,5.323,0.094,5.706,0
					c15.777-1,29.781-7.183,39.414-16.44c-3.939,29.944-11.28,76.309-22.57,112.235H198.611z M248.482,425.088
					c14.308-47.118,22.137-109.839,24.671-132.797c12.686,9.709,39.634,30.683,56.837,46.588l-30.69,17.994
					c-1.16,0.681-1.997,1.799-2.322,3.104c-0.325,1.305-0.111,2.686,0.594,3.831l15.841,25.727l-24.77,35.553H248.482z
					 M371.992,425.088v-35.384c0-2.761-2.238-5-5-5c-2.762,0-5,2.239-5,5v35.384h-61.163l22.66-32.525
					c1.138-1.633,1.198-3.785,0.155-5.48l-14.88-24.167l32.016-18.771c1.344-0.788,2.243-2.157,2.434-3.703
					c0.189-1.545-0.352-3.092-1.464-4.182c-14.027-13.743-37.537-32.557-53.331-44.835c98.713,19.548,109.023,55.183,109.402,55.684
					c0.107,0.142,26.811,77.98,26.811,77.98H371.992z"/>
			</g>
		</g>
	</g>
</g>
<g>
</g>
<g>
</g>
<g>
</g>
<g>
</g>
<g>
</g>
<g>
</g>
<g>
</g>
<g>
</g>
<g>
</g>
<g>
</g>
<g>
</g>
<g>
</g>
<g>
</g>
<g>
</g>
<g>
</g>
</svg>
